<svg width="124" height="53" viewBox="0 0 124 53" fill="none" xmlns="http://www.w3.org/2000/svg">
<path d="M22.452 18.8664C22.7364 19.1663 22.8792 19.5515 22.8792 20.0178C22.8792 20.6526 22.6529 21.19 22.2005 21.6322C21.7481 22.0755 21.221 22.2966 20.6182 22.2966C20.1658 22.2966 19.7979 22.1455 19.5135 21.8457C19.228 21.5447 19.0863 21.1616 19.0863 20.6942C19.0863 20.0605 19.3125 19.522 19.7649 19.0787C20.2163 18.6376 20.7444 18.4165 21.3473 18.4165C21.7986 18.4165 22.1665 18.5665 22.452 18.8664ZM21.7426 24.8271L19.2752 37.1251C19.2247 37.3812 18.9985 37.5651 18.7371 37.5651H16.6156C16.2697 37.5651 16.0094 37.2499 16.0775 36.9117L18.5219 24.6137C18.5724 24.3576 18.7986 24.1737 19.06 24.1737H21.2046C21.5516 24.1737 21.8107 24.4889 21.7426 24.8271Z" fill="white"/>
<path d="M36.5455 25.0604C37.4259 25.8428 37.8666 26.8988 37.8666 28.2274C37.8666 28.6655 37.8151 29.1289 37.713 29.6156L36.1866 37.1214C36.1339 37.3796 35.904 37.565 35.637 37.565H33.4198C33.0665 37.565 32.8007 37.2472 32.8702 36.9051L34.2497 30.0945C34.3013 29.8098 34.326 29.5405 34.326 29.2878C34.326 28.5309 34.0871 27.9339 33.6082 27.4958C33.1293 27.0588 32.4631 26.8392 31.6085 26.8392C30.6339 26.8392 29.7736 27.1681 29.0301 27.8235C28.2865 28.4801 27.8031 29.3474 27.581 30.4233L26.1847 37.1247C26.132 37.3807 25.9021 37.565 25.6352 37.565H23.4403C23.087 37.565 22.8224 37.2483 22.8896 36.9062L25.3626 24.5087C25.4142 24.2505 25.6453 24.064 25.9133 24.064H28.1553C28.5085 24.064 28.7744 24.3807 28.7059 24.7217L28.4525 25.9818C29.5303 24.5848 31.0174 23.8875 32.9162 23.8875C34.4549 23.8875 35.664 24.2781 36.5455 25.0604Z" fill="white"/>
<path d="M47.3071 22.2514C46.8784 22.5939 46.6055 23.0539 46.4897 23.6337L46.2428 24.8874H48.8823C49.2223 24.8874 49.4767 25.2075 49.4139 25.5512L49.0761 27.407C49.0274 27.6723 48.8044 27.8637 48.5445 27.8637H45.6495L43.7798 37.5707C43.7289 37.8326 43.507 38.0206 43.2482 38.0206H41.1338C40.7917 38.0206 40.5362 37.6983 40.6022 37.3513L42.4308 27.8637H41.3558C41.0147 27.8637 40.7592 27.5414 40.8253 27.1955L41.1793 25.3396C41.2291 25.0766 41.4521 24.8874 41.7109 24.8874H43.023L43.2959 23.4289C43.5925 21.9447 44.2443 20.8141 45.2522 20.0362C46.2591 19.2605 47.3969 18.8721 48.6691 18.8721C49.4117 18.8721 50.096 19.0053 50.7218 19.2683C50.9816 19.3791 51.0985 19.6959 51.0065 19.9701L50.2789 22.1238C50.0473 22.0208 49.7874 21.9312 49.4984 21.8551C49.2093 21.7779 48.9657 21.7398 48.7676 21.7398C48.223 21.7398 47.7358 21.91 47.3071 22.2514Z" fill="white"/>
<path d="M54.7085 27.256C54.0517 27.643 53.5359 28.1784 53.1611 28.8655C52.7852 29.5537 52.5973 30.3332 52.5973 31.2039C52.5973 32.2934 52.9139 33.1696 53.5438 33.8315C54.1748 34.4944 55.0117 34.8253 56.0522 34.8253C56.8711 34.8253 57.6039 34.6318 58.2529 34.2459C58.9006 33.8611 59.4131 33.3257 59.7879 32.6375C60.1627 31.9504 60.3506 31.1709 60.3506 30.2991C60.3506 29.2261 60.0396 28.3543 59.4164 27.6848C58.7944 27.013 57.962 26.6788 56.9226 26.6788C56.1036 26.6788 55.3652 26.8712 54.7085 27.256ZM60.6449 24.6548C61.6428 25.166 62.4103 25.8905 62.9474 26.8283C63.4855 27.7683 63.754 28.8402 63.754 30.0473C63.754 31.5051 63.4083 32.8046 62.718 33.9447C62.0266 35.0848 61.0801 35.9731 59.8774 36.6096C58.6746 37.2473 57.3142 37.565 55.7959 37.565C54.4825 37.565 53.3267 37.3055 52.3299 36.7855C51.3308 36.2666 50.5633 35.541 50.0262 34.6109C49.4881 33.6808 49.2207 32.6034 49.2207 31.3798C49.2207 29.922 49.5608 28.6269 50.2433 27.4957C50.9258 26.3633 51.8723 25.4805 53.084 24.8428C54.2945 24.2063 55.6595 23.8875 57.1777 23.8875C58.4912 23.8875 59.6469 24.1436 60.6449 24.6548Z" fill="white"/>
<path d="M68.4868 36.7987C67.5608 36.2875 66.8427 35.5674 66.3337 34.6362C65.8247 33.7061 65.5708 32.6375 65.5708 31.4304C65.5708 29.9726 65.8959 28.6687 66.5472 27.5209C67.1974 26.3732 68.0949 25.4805 69.2377 24.8428C70.3804 24.2063 71.6622 23.8875 73.0807 23.8875C74.299 23.8875 75.3673 24.1007 76.2846 24.5295C77.0344 24.878 77.6616 25.3474 78.1673 25.9367C78.3577 26.1588 78.314 26.5029 78.0918 26.6942L76.7104 27.8903C76.4871 28.0838 76.1653 28.0508 75.9507 27.8475C75.1867 27.1186 74.1874 26.7536 72.956 26.7536C72.1876 26.7536 71.4914 26.9427 70.8653 27.3198C70.2392 27.6968 69.7466 28.2202 69.3887 28.8919C69.0297 29.5614 68.8502 30.3332 68.8502 31.2039C68.8502 32.2604 69.1501 33.1146 69.751 33.7688C70.3519 34.4229 71.1444 34.7494 72.1296 34.7494C73.5262 34.7494 74.6569 34.3482 75.5206 33.5456C75.7362 33.3444 76.0569 33.3202 76.2758 33.5159L77.3595 34.4889C77.5828 34.689 77.6145 35.0419 77.4109 35.2629C76.7925 35.9368 76.0536 36.4689 75.1955 36.8625C74.1699 37.3308 73.0052 37.565 71.7038 37.565C70.4855 37.565 69.4128 37.3099 68.4868 36.7987Z" fill="white"/>
<path d="M80.5169 36.392C79.6354 35.6096 79.1958 34.5547 79.1958 33.225C79.1958 32.7715 79.2474 32.308 79.3494 31.8369L80.8758 24.3299C80.9285 24.0728 81.1584 23.8875 81.4265 23.8875H83.6426C83.997 23.8875 84.2617 24.2053 84.1921 24.5473L82.8127 31.358C82.7611 31.6272 82.7364 31.8965 82.7364 32.1646C82.7364 32.9216 82.9753 33.5186 83.4542 33.9566C83.932 34.3936 84.5993 34.6132 85.4539 34.6132C86.4284 34.6132 87.2886 34.2855 88.0322 33.6289C88.7758 32.9723 89.2591 32.1061 89.4812 31.0302L90.8775 24.3277C90.9313 24.0717 91.1612 23.8875 91.427 23.8875H93.623C93.9751 23.8875 94.2409 24.2041 94.1725 24.5451L91.6996 36.9437C91.648 37.2019 91.4169 37.3884 91.1489 37.3884H88.907C88.5537 37.3884 88.289 37.0706 88.3574 36.7308L88.6098 35.4706C87.532 36.8676 86.0449 37.565 84.1462 37.565C82.6074 37.565 81.3973 37.1744 80.5169 36.392Z" fill="white"/>
<path d="M97.232 37.2954C96.2291 36.8824 95.4153 36.3629 94.7905 35.7347C94.6049 35.548 94.5902 35.2503 94.7351 35.0308L95.5772 33.753C95.7639 33.469 96.151 33.4395 96.4068 33.6636C96.9049 34.1005 97.4912 34.474 98.1635 34.7841C99.0611 35.1983 99.9066 35.4054 100.7 35.4054C101.338 35.4054 101.849 35.273 102.228 35.0048C102.607 34.7377 102.797 34.38 102.797 33.9307C102.797 33.5346 102.607 33.2064 102.228 32.9472C101.849 32.688 101.261 32.404 100.468 32.0927C99.6734 31.7645 99.0226 31.4635 98.5132 31.1873C98.0039 30.9112 97.5681 30.523 97.2059 30.0216C96.8437 29.5225 96.6626 28.9012 96.6626 28.1587C96.6626 27.3133 96.8788 26.5709 97.3101 25.9325C97.7413 25.2942 98.3446 24.794 99.1211 24.4318C99.8975 24.0685 100.795 23.8875 101.814 23.8875C102.849 23.8875 103.888 24.0731 104.933 24.4443C105.78 24.7442 106.516 25.1279 107.14 25.593C107.384 25.773 107.421 26.1272 107.243 26.3728L106.278 27.7117C106.099 27.9607 105.759 28.0105 105.504 27.8407C104.965 27.4853 104.399 27.1899 103.807 26.9545C103.048 26.6535 102.374 26.5018 101.788 26.5018C101.252 26.5018 100.809 26.6308 100.454 26.8911C100.101 27.1492 99.9236 27.4683 99.9236 27.8475C99.9236 28.2278 100.106 28.5345 100.468 28.7665C100.83 28.9996 101.416 29.2894 102.228 29.6334C103.057 29.9786 103.73 30.2932 104.247 30.5784C104.765 30.8625 105.214 31.2609 105.593 31.769C105.972 32.2783 106.162 32.9133 106.162 33.6715C106.162 34.517 105.938 35.2685 105.49 35.9237C105.041 36.579 104.411 37.0929 103.6 37.4629C102.788 37.8353 101.866 38.0209 100.83 38.0209C99.6044 38.0209 98.4057 37.7787 97.232 37.2954Z" fill="white"/>
<path d="M114.466 27.2236C113.801 27.6478 113.277 28.2213 112.894 28.9428C112.511 29.6633 112.32 30.4572 112.32 31.3235C112.32 32.3936 112.62 33.2499 113.218 33.8958C113.817 34.5405 114.607 34.8634 115.589 34.8634C116.388 34.8634 117.124 34.6518 117.798 34.2265C118.472 33.8022 119.004 33.2299 119.395 32.5072C119.786 31.7868 119.981 31.0017 119.981 30.1521C119.981 29.082 119.678 28.2213 119.071 27.5676C118.463 26.914 117.66 26.5866 116.663 26.5866C115.864 26.5866 115.132 26.7993 114.466 27.2236ZM120.643 24.6502C121.466 25.1602 122.106 25.874 122.564 26.7904C123.022 27.7079 123.25 28.7602 123.25 29.9483C123.25 31.4093 122.935 32.7366 122.302 33.9336C121.67 35.1306 120.808 36.0727 119.719 36.7597C118.629 37.449 117.411 37.792 116.064 37.792C114.932 37.792 113.984 37.5492 113.218 37.0659C112.453 36.5816 111.888 35.8745 111.521 34.9402L110.089 42.1347C110.036 42.393 109.814 42.5801 109.554 42.5801H107.445C107.101 42.5801 106.844 42.2583 106.91 41.9142L110.311 24.4631C110.363 24.2015 110.586 24.0144 110.847 24.0144H112.975C113.32 24.0144 113.578 24.3373 113.51 24.6836L113.268 25.874C113.867 25.2459 114.554 24.7571 115.327 24.4097C116.101 24.0612 116.928 23.8875 117.811 23.8875C118.875 23.8875 119.819 24.1413 120.643 24.6502Z" fill="white"/>
<path d="M0.625 13.8575L13.7958 27.535V13.8575H0.625Z" fill="white"/>
<path d="M0.625 13.8575L13.7958 18.4167V13.8575H0.625Z" fill="#A0A0A0"/>
<path d="M13.5381 0.635498H0.625V13.8571H13.5381H26.9667L13.5381 0.635498Z" fill="white"/>
<path d="M32.7098 44.6437L31.2726 52.0933H29.3948L31.0482 43.5227H31.7836C32.3046 43.5227 32.7269 43.9448 32.7269 44.4653C32.7269 44.5252 32.7212 44.5849 32.7098 44.6437ZM39.6462 46.0021C40.0478 46.3898 40.2486 46.9102 40.2486 47.5632C40.2486 47.7591 40.2249 47.9754 40.1777 48.2121L39.4218 52.0933H37.6148L38.2998 48.4814C38.3235 48.359 38.3353 48.2406 38.3353 48.1264C38.3353 47.7999 38.2388 47.5407 38.0459 47.3489C37.853 47.1571 37.5833 47.0612 37.2369 47.0612C36.8353 47.0612 36.4791 47.2101 36.1681 47.5081C35.857 47.806 35.6543 48.1957 35.5598 48.6773L34.8984 52.0933H33.0796L34.3315 45.5062H36.1621L35.985 46.4122C36.5047 45.7511 37.1778 45.4205 38.0046 45.4205C38.6975 45.4205 39.2447 45.6144 39.6462 46.0021ZM47.5828 46.0021C47.9844 46.3898 48.1852 46.9102 48.1852 47.5632C48.1852 47.7591 48.1615 47.9754 48.1143 48.2121L47.3584 52.0933H45.5514L46.2364 48.4814C46.2601 48.359 46.2719 48.2406 46.2719 48.1264C46.2719 47.7999 46.1754 47.5407 45.9825 47.3489C45.7896 47.1571 45.5199 47.0612 45.1735 47.0612C44.7719 47.0612 44.4157 47.2101 44.1047 47.5081C43.7936 47.806 43.5909 48.1957 43.4964 48.6773L42.835 52.0933H41.0162L42.2681 45.5062H44.0987L43.9216 46.4122C44.4413 45.7511 45.1144 45.4205 45.9412 45.4205C46.6341 45.4205 47.1813 45.6144 47.5828 46.0021ZM54.4388 45.8246C54.9073 46.0776 55.2675 46.4306 55.5194 46.8836C55.7714 47.3366 55.8974 47.8652 55.8974 48.4692C55.8974 49.1875 55.736 49.8282 55.4131 50.3914C55.0903 50.9546 54.6455 51.3913 54.0786 51.7015C53.5117 52.0117 52.866 52.1668 52.1416 52.1668C51.5196 52.1668 50.9724 52.0403 50.5 51.7872C50.0276 51.5342 49.6654 51.1791 49.4134 50.722C49.1615 50.2649 49.0355 49.7344 49.0355 49.1303C49.0355 48.412 49.1969 47.7733 49.5197 47.2142C49.8426 46.6551 50.2874 46.2204 50.8543 45.9103C51.4212 45.6001 52.0668 45.445 52.7912 45.445C53.4211 45.445 53.9703 45.5715 54.4388 45.8246ZM51.7401 47.2693C51.4724 47.4407 51.2618 47.6795 51.1082 47.9856C50.9547 48.2917 50.8779 48.6406 50.8779 49.0324C50.8779 49.514 51.0039 49.9017 51.2559 50.1955C51.5078 50.4894 51.8503 50.6363 52.2834 50.6363C52.6219 50.6363 52.9251 50.5506 53.1928 50.3792C53.4605 50.2078 53.6711 49.969 53.8246 49.6629C53.9782 49.3568 54.0549 49.0079 54.0549 48.6161C54.0549 48.1345 53.927 47.7468 53.6711 47.453C53.4152 47.1591 53.0747 47.0122 52.6495 47.0122C52.3109 47.0122 52.0078 47.0979 51.7401 47.2693ZM63.3025 45.5062L59.6413 52.0933H57.7752L56.6296 45.5062H58.4838L59.0271 50.3057L61.4601 45.5062H63.3025ZM63.9225 51.7995C63.5407 51.5546 63.2434 51.2118 63.0309 50.771C62.8183 50.3302 62.712 49.8242 62.712 49.2528C62.712 48.5426 62.8596 47.8958 63.1549 47.3122C63.4501 46.7285 63.8576 46.2694 64.3772 45.9347C64.8969 45.6001 65.4717 45.4328 66.1016 45.4328C66.6055 45.4328 67.0307 45.5409 67.3771 45.7572C67.7235 45.9735 67.9873 46.2898 68.1684 46.7061L68.3928 45.5062H70.1998L68.9361 52.0933H67.1291L67.3062 51.2607C66.7236 51.8648 66.0346 52.1668 65.2394 52.1668C64.7434 52.1668 64.3044 52.0443 63.9225 51.7995ZM66.8456 50.4037C67.1291 50.2159 67.3535 49.9609 67.5188 49.6385C67.6842 49.316 67.7668 48.963 67.7668 48.5794C67.7668 48.1141 67.6409 47.7427 67.3889 47.4652C67.1369 47.1877 66.8023 47.0489 66.385 47.0489C66.0543 47.0489 65.7472 47.1428 65.4638 47.3305C65.1803 47.5183 64.956 47.7733 64.7906 48.0958C64.6253 48.4182 64.5426 48.7671 64.5426 49.1426C64.5426 49.616 64.6686 49.9915 64.9205 50.269C65.1725 50.5465 65.5071 50.6853 65.9244 50.6853C66.2551 50.6853 66.5622 50.5914 66.8456 50.4037ZM73.1996 49.9017C73.176 50.0241 73.1642 50.1262 73.1642 50.2078C73.1642 50.3465 73.1957 50.4445 73.2587 50.5016C73.3217 50.5588 73.4162 50.5873 73.5421 50.5873C73.8256 50.5873 74.1523 50.4975 74.5224 50.318L74.7468 51.7505C74.487 51.8892 74.2114 51.9954 73.9201 52.0688C73.6287 52.1423 73.3453 52.179 73.0697 52.179C72.5422 52.179 72.119 52.0362 71.8001 51.7505C71.4812 51.4648 71.3218 51.0689 71.3218 50.5628C71.3218 50.3833 71.3375 50.2159 71.369 50.0609L71.9477 47.1101H71.0737L71.31 45.8001H72.1957L72.5501 43.988H74.3452L73.9909 45.8001H75.7271L75.4908 47.1101H73.7429L73.1996 49.9017ZM78.845 45.5062L77.5813 52.0933H75.7743L77.038 45.5062H78.845ZM79.0812 42.8187C79.2308 42.9779 79.3056 43.184 79.3056 43.437C79.3056 43.788 79.1875 44.0839 78.9513 44.3247C78.7151 44.5655 78.4316 44.6859 78.1009 44.6859C77.8569 44.6859 77.66 44.6043 77.5104 44.441C77.3608 44.2778 77.286 44.0696 77.286 43.8166C77.286 43.4656 77.4022 43.1718 77.6344 42.9351C77.8667 42.6983 78.1482 42.58 78.4789 42.58C78.7308 42.58 78.9316 42.6596 79.0812 42.8187ZM84.8388 45.8246C85.3073 46.0776 85.6675 46.4306 85.9194 46.8836C86.1714 47.3366 86.2974 47.8652 86.2974 48.4692C86.2974 49.1875 86.136 49.8282 85.8132 50.3914C85.4903 50.9546 85.0455 51.3913 84.4786 51.7015C83.9117 52.0117 83.266 52.1668 82.5417 52.1668C81.9196 52.1668 81.3724 52.0403 80.9 51.7872C80.4276 51.5342 80.0654 51.1791 79.8135 50.722C79.5615 50.2649 79.4355 49.7344 79.4355 49.1303C79.4355 48.412 79.5969 47.7733 79.9198 47.2142C80.2426 46.6551 80.6874 46.2204 81.2543 45.9103C81.8212 45.6001 82.4669 45.445 83.1912 45.445C83.8211 45.445 84.3703 45.5715 84.8388 45.8246ZM82.1401 47.2693C81.8724 47.4407 81.6618 47.6795 81.5083 47.9856C81.3547 48.2917 81.278 48.6406 81.278 49.0324C81.278 49.514 81.4039 49.9017 81.6559 50.1955C81.9078 50.4894 82.2503 50.6363 82.6834 50.6363C83.022 50.6363 83.3251 50.5506 83.5928 50.3792C83.8605 50.2078 84.0711 49.969 84.2247 49.6629C84.3782 49.3568 84.455 49.0079 84.455 48.6161C84.455 48.1345 84.327 47.7468 84.0711 47.453C83.8152 47.1591 83.4747 47.0122 83.0495 47.0122C82.711 47.0122 82.4078 47.0979 82.1401 47.2693ZM93.4663 46.0021C93.8679 46.3898 94.0686 46.9102 94.0686 47.5632C94.0686 47.7591 94.045 47.9754 93.9978 48.2121L93.2419 52.0933H91.4349L92.1199 48.4814C92.1435 48.359 92.1553 48.2406 92.1553 48.1264C92.1553 47.7999 92.0589 47.5407 91.866 47.3489C91.6731 47.1571 91.4034 47.0612 91.057 47.0612C90.6554 47.0612 90.2991 47.2101 89.9881 47.5081C89.6771 47.806 89.4744 48.1957 89.3799 48.6773L88.7185 52.0933H86.8997L88.1516 45.5062H89.9822L89.8051 46.4122C90.3247 45.7511 90.9979 45.4205 91.8247 45.4205C92.5175 45.4205 93.0648 45.6144 93.4663 46.0021ZM95.728 51.8362C95.1729 51.6076 94.7222 51.3016 94.3757 50.9179L95.1434 49.7548C95.4426 50.0568 95.7969 50.3037 96.2063 50.4955C96.6158 50.6873 96.9937 50.7832 97.3401 50.7832C97.5921 50.7832 97.7929 50.7302 97.9425 50.6241C98.0921 50.518 98.1669 50.3751 98.1669 50.1955C98.1669 50.0323 98.0842 49.8976 97.9188 49.7915C97.7535 49.6854 97.5015 49.563 97.163 49.4242C96.7929 49.2691 96.4878 49.1242 96.2477 48.9895C96.0075 48.8549 95.8008 48.6671 95.6276 48.4263C95.4544 48.1855 95.3678 47.8856 95.3678 47.5264C95.3678 47.1183 95.4701 46.7551 95.6749 46.4367C95.8796 46.1184 96.167 45.8715 96.537 45.696C96.9071 45.5205 97.3323 45.4328 97.8125 45.4328C98.3086 45.4328 98.8086 45.5246 99.3125 45.7082C99.8164 45.8919 100.249 46.1429 100.612 46.4612L99.7849 47.6366C99.4542 47.3836 99.1137 47.1836 98.7633 47.0367C98.4129 46.8898 98.1039 46.8163 97.8362 46.8163C97.6314 46.8163 97.4582 46.8693 97.3165 46.9755C97.1748 47.0816 97.1039 47.2122 97.1039 47.3673C97.1039 47.5223 97.1866 47.6529 97.3519 47.7591C97.5173 47.8652 97.7692 47.9876 98.1078 48.1264C98.4857 48.2896 98.7967 48.4406 99.0408 48.5794C99.2849 48.7181 99.4975 48.912 99.6786 49.161C99.8597 49.4099 99.9502 49.714 99.9502 50.0731C99.9502 50.4812 99.8439 50.8445 99.6313 51.1628C99.4188 51.4811 99.1215 51.7301 98.7397 51.9097C98.3578 52.0892 97.9228 52.179 97.4346 52.179C96.852 52.179 96.2831 52.0647 95.728 51.8362Z" fill="white"/>
</svg>
