<svg width="123" height="52" viewBox="0 0 123 52" fill="none" xmlns="http://www.w3.org/2000/svg">
<path d="M21.828 18.2295C22.1124 18.5294 22.2552 18.9147 22.2552 19.3809C22.2552 20.0157 22.0289 20.553 21.5765 20.9952C21.1241 21.4384 20.597 21.6595 19.9941 21.6595C19.5416 21.6595 19.1738 21.5085 18.8893 21.2086C18.6038 20.9076 18.4622 20.5246 18.4622 20.0573C18.4622 19.4236 18.6884 18.8851 19.1408 18.4419C19.5922 18.0008 20.1204 17.7797 20.7232 17.7797C21.1746 17.7797 21.5425 17.9297 21.828 18.2295ZM21.1186 24.1899L18.6511 36.487C18.6005 36.7431 18.3743 36.927 18.113 36.927H15.9913C15.6454 36.927 15.3852 36.6118 15.4533 36.2736L17.8977 23.9765C17.9482 23.7204 18.1745 23.5365 18.4358 23.5365H20.5805C20.9275 23.5365 21.1867 23.8517 21.1186 24.1899Z" fill="#448AFF"/>
<path d="M35.922 24.4233C36.8025 25.2056 37.2432 26.2615 37.2432 27.59C37.2432 28.0281 37.1916 28.4915 37.0896 28.9781L35.5631 36.4834C35.5104 36.7416 35.2805 36.927 35.0135 36.927H32.7962C32.4429 36.927 32.177 36.6092 32.2466 36.2672L33.6261 29.457C33.6777 29.1723 33.7024 28.9031 33.7024 28.6504C33.7024 27.8935 33.4635 27.2965 32.9846 26.8585C32.5057 26.4215 31.8394 26.202 30.9848 26.202C30.0101 26.202 29.1499 26.5308 28.4063 27.1862C27.6627 27.8427 27.1793 28.71 26.9572 29.7858L25.5608 36.4867C25.5081 36.7427 25.2782 36.927 25.0113 36.927H22.8163C22.463 36.927 22.1983 36.6103 22.2656 36.2683L24.7387 23.8716C24.7903 23.6134 25.0214 23.4269 25.2894 23.4269H27.5315C27.8848 23.4269 28.1506 23.7436 28.0821 24.0845L27.8287 25.3446C28.9065 23.9477 30.3937 23.2504 32.2926 23.2504C33.8314 23.2504 35.0404 23.641 35.922 24.4233Z" fill="#448AFF"/>
<path d="M46.6838 21.6147C46.2551 21.9572 45.9822 22.4172 45.8664 22.997L45.6195 24.2506H48.2591C48.5991 24.2506 48.8535 24.5707 48.7907 24.9143L48.4529 26.77C48.4042 27.0353 48.1812 27.2267 47.9213 27.2267H45.0262L43.1564 36.933C43.1055 37.1949 42.8836 37.3829 42.6248 37.3829H40.5103C40.1682 37.3829 39.9127 37.0606 39.9787 36.7136L41.8074 27.2267H40.7323C40.3912 27.2267 40.1357 26.9043 40.2017 26.5585L40.5558 24.7027C40.6056 24.4397 40.8286 24.2506 41.0874 24.2506H42.3996L42.6724 22.7922C42.9691 21.308 43.6209 20.1776 44.6289 19.3997C45.6358 18.624 46.7737 18.2356 48.0458 18.2356C48.7886 18.2356 49.4728 18.3688 50.0986 18.6318C50.3585 18.7427 50.4754 19.0594 50.3834 19.3336L49.6558 21.4871C49.4241 21.3841 49.1643 21.2946 48.8752 21.2185C48.5861 21.1412 48.3425 21.1032 48.1444 21.1032C47.5998 21.1032 47.1126 21.2733 46.6838 21.6147Z" fill="#448AFF"/>
<path d="M54.0859 26.6187C53.4291 27.0056 52.9133 27.541 52.5385 28.2281C52.1626 28.9163 51.9746 29.6957 51.9746 30.5663C51.9746 31.6558 52.2912 32.5319 52.9212 33.1937C53.5522 33.8566 54.3891 34.1875 55.4296 34.1875C56.2486 34.1875 56.9815 33.994 57.6304 33.6081C58.2782 33.2234 58.7907 32.688 59.1655 31.9998C59.5403 31.3128 59.7283 30.5334 59.7283 29.6616C59.7283 28.5887 59.4172 27.7169 58.794 27.0474C58.1719 26.3757 57.3395 26.0415 56.3001 26.0415C55.4811 26.0415 54.7427 26.2339 54.0859 26.6187ZM60.0225 24.0177C61.0205 24.5289 61.7881 25.2533 62.3251 26.191C62.8633 27.131 63.1318 28.2028 63.1318 29.4098C63.1318 30.8675 62.7861 32.1669 62.0958 33.3069C61.4043 34.4469 60.4578 35.3352 59.255 35.9717C58.0522 36.6093 56.6917 36.927 55.1734 36.927C53.8599 36.927 52.7041 36.6676 51.7072 36.1476C50.7081 35.6287 49.9405 34.9031 49.4035 33.9731C48.8653 33.0431 48.5979 31.9658 48.5979 30.7422C48.5979 29.2845 48.938 27.9895 49.6205 26.8583C50.303 25.726 51.2496 24.8433 52.4613 24.2057C53.6719 23.5692 55.0369 23.2504 56.5552 23.2504C57.8687 23.2504 59.0245 23.5065 60.0225 24.0177Z" fill="#448AFF"/>
<path d="M67.8646 36.1608C66.9385 35.6496 66.2204 34.9295 65.7114 33.9984C65.2024 33.0684 64.9485 31.9998 64.9485 30.7928C64.9485 29.3351 65.2736 28.0313 65.9249 26.8836C66.5751 25.7359 67.4727 24.8433 68.6155 24.2057C69.7583 23.5692 71.0401 23.2504 72.4587 23.2504C73.677 23.2504 74.7454 23.4636 75.6627 23.8924C76.4125 24.2409 77.0397 24.7103 77.5455 25.2995C77.7359 25.5216 77.6921 25.8656 77.4699 26.0569L76.0885 27.253C75.8652 27.4465 75.5434 27.4135 75.3288 27.2101C74.5648 26.4813 73.5654 26.1163 72.3339 26.1163C71.5655 26.1163 70.8693 26.3054 70.2432 26.6824C69.6171 27.0595 69.1245 27.5828 68.7665 28.2545C68.4075 28.924 68.228 29.6957 68.228 30.5663C68.228 31.6228 68.5279 32.477 69.1289 33.131C69.7298 33.7851 70.5223 34.1116 71.5075 34.1116C72.9042 34.1116 74.035 33.7104 74.8987 32.9079C75.1143 32.7067 75.435 32.6825 75.6539 32.8782L76.7376 33.8511C76.9609 34.0512 76.9927 34.4041 76.7891 34.625C76.1706 35.2989 75.4317 35.831 74.5735 36.2245C73.5479 36.6928 72.3832 36.927 71.0817 36.927C69.8634 36.927 68.7906 36.672 67.8646 36.1608Z" fill="#448AFF"/>
<path d="M79.8952 35.7541C79.0136 34.9718 78.574 33.9169 78.574 32.5873C78.574 32.1338 78.6256 31.6704 78.7276 31.1992L80.2541 23.6928C80.3068 23.4357 80.5367 23.2504 80.8048 23.2504H83.021C83.3754 23.2504 83.6401 23.5681 83.5705 23.9102L82.191 30.7204C82.1394 30.9896 82.1147 31.2588 82.1147 31.527C82.1147 32.2839 82.3536 32.8808 82.8325 33.3189C83.3103 33.7558 83.9777 33.9754 84.8323 33.9754C85.8069 33.9754 86.6672 33.6477 87.4107 32.9912C88.1543 32.3346 88.6377 31.4685 88.8598 30.3927L90.2561 23.6906C90.31 23.4346 90.5399 23.2504 90.8057 23.2504H93.0017C93.3539 23.2504 93.6197 23.567 93.5513 23.908L91.0782 36.3058C91.0267 36.564 90.7956 36.7504 90.5276 36.7504H88.2856C87.9323 36.7504 87.6676 36.4327 87.736 36.0928L87.9883 34.8327C86.9105 36.2296 85.4233 36.927 83.5245 36.927C81.9858 36.927 80.7756 36.5364 79.8952 35.7541Z" fill="#448AFF"/>
<path d="M96.611 36.6575C95.6081 36.2444 94.7943 35.725 94.1694 35.0969C93.9838 34.9101 93.9691 34.6125 94.114 34.393L94.9561 33.1153C95.1429 32.8312 95.53 32.8018 95.7858 33.0259C96.2839 33.4627 96.8702 33.8362 97.5425 34.1463C98.4401 34.5605 99.2857 34.7676 100.079 34.7676C100.718 34.7676 101.228 34.6351 101.607 34.3669C101.986 34.0999 102.177 33.7422 102.177 33.293C102.177 32.8969 101.986 32.5687 101.607 32.3095C101.228 32.0504 100.641 31.7663 99.8471 31.4551C99.0525 31.1269 98.4017 30.8259 97.8923 30.5498C97.3829 30.2736 96.9471 29.8855 96.5849 29.3841C96.2227 28.885 96.0416 28.2637 96.0416 27.5214C96.0416 26.676 96.2578 25.9336 96.6891 25.2953C97.1203 24.6571 97.7236 24.1568 98.5001 23.7947C99.2766 23.4314 100.174 23.2504 101.193 23.2504C102.229 23.2504 103.268 23.436 104.313 23.8072C105.159 24.1071 105.895 24.4907 106.52 24.9558C106.763 25.1358 106.8 25.49 106.623 25.7356L105.657 27.0743C105.478 27.3233 105.139 27.3731 104.883 27.2034C104.344 26.848 103.778 26.5526 103.186 26.3172C102.427 26.0162 101.753 25.8646 101.167 25.8646C100.632 25.8646 100.188 25.9936 99.8335 26.2539C99.4804 26.5119 99.3027 26.831 99.3027 27.2101C99.3027 27.5904 99.4849 27.8971 99.8471 28.1291C100.209 28.3622 100.796 28.6519 101.607 28.9959C102.436 29.3411 103.109 29.6557 103.627 29.9409C104.144 30.225 104.593 30.6233 104.972 31.1314C105.352 31.6407 105.542 32.2756 105.542 33.0338C105.542 33.8792 105.318 34.6306 104.869 35.2859C104.42 35.9411 103.791 36.4549 102.979 36.825C102.168 37.1973 101.245 37.3829 100.209 37.3829C98.9835 37.3829 97.7848 37.1407 96.611 36.6575Z" fill="#448AFF"/>
<path d="M113.846 26.5862C113.181 27.0105 112.657 27.5839 112.274 28.3054C111.891 29.0258 111.7 29.8197 111.7 30.6859C111.7 31.756 112 32.6122 112.598 33.258C113.197 33.9027 113.987 34.2256 114.969 34.2256C115.768 34.2256 116.504 34.014 117.177 33.5887C117.852 33.1645 118.384 32.5922 118.775 31.8695C119.166 31.1491 119.361 30.3642 119.361 29.5146C119.361 28.4446 119.057 27.5839 118.451 26.9303C117.843 26.2767 117.04 25.9494 116.043 25.9494C115.244 25.9494 114.512 26.162 113.846 26.5862ZM120.023 24.0131C120.846 24.523 121.486 25.2367 121.944 26.1531C122.402 27.0706 122.63 28.1228 122.63 29.3108C122.63 30.7717 122.315 32.0989 121.682 33.2959C121.05 34.4928 120.188 35.4348 119.099 36.1218C118.009 36.811 116.791 37.1539 115.444 37.1539C114.312 37.1539 113.364 36.9112 112.598 36.428C111.833 35.9436 111.268 35.2366 110.901 34.3024L109.468 41.4964C109.416 41.7547 109.193 41.9418 108.934 41.9418H106.824C106.481 41.9418 106.223 41.62 106.29 41.2759L109.691 23.826C109.742 23.5644 109.966 23.3773 110.227 23.3773H112.354C112.699 23.3773 112.958 23.7002 112.889 24.0465L112.648 25.2368C113.247 24.6088 113.933 24.12 114.707 23.7726C115.481 23.4241 116.308 23.2504 117.191 23.2504C118.254 23.2504 119.199 23.5042 120.023 24.0131Z" fill="#448AFF"/>
<path d="M0 13.2206L13.1714 26.8972V13.2206H0Z" fill="#1F5AD0"/>
<path d="M0 13.2206L13.1714 17.7795V13.2206H0Z" fill="#193782"/>
<path d="M12.9138 0H0.000244141V13.2207H12.9138H26.343L12.9138 0Z" fill="#00C6FF"/>
<path d="M32.0859 44.0052L30.6487 51.4543H28.7708L30.4243 42.8843H31.1597C31.6807 42.8843 32.103 43.3063 32.103 43.8268C32.103 43.8867 32.0973 43.9464 32.0859 44.0052ZM39.0226 45.3635C39.4242 45.7512 39.625 46.2715 39.625 46.9245C39.625 47.1203 39.6013 47.3366 39.5541 47.5733L38.7982 51.4543H36.9911L37.6762 47.8427C37.6998 47.7202 37.7116 47.6019 37.7116 47.4876C37.7116 47.1611 37.6151 46.902 37.4222 46.7102C37.2293 46.5184 36.9596 46.4225 36.6132 46.4225C36.2116 46.4225 35.8553 46.5714 35.5443 46.8694C35.2333 47.1673 35.0305 47.557 34.936 48.0386L34.2746 51.4543H32.4558L33.7077 44.8677H35.5384L35.3612 45.7736C35.8809 45.1125 36.5541 44.782 37.3809 44.782C38.0738 44.782 38.621 44.9758 39.0226 45.3635ZM46.9595 45.3635C47.3611 45.7512 47.5619 46.2715 47.5619 46.9245C47.5619 47.1203 47.5383 47.3366 47.491 47.5733L46.7351 51.4543H44.9281L45.6131 47.8427C45.6367 47.7202 45.6485 47.6019 45.6485 47.4876C45.6485 47.1611 45.5521 46.902 45.3592 46.7102C45.1662 46.5184 44.8966 46.4225 44.5501 46.4225C44.1485 46.4225 43.7922 46.5714 43.4812 46.8694C43.1702 47.1673 42.9674 47.557 42.873 48.0386L42.2116 51.4543H40.3927L41.6446 44.8677H43.4753L43.2982 45.7736C43.8178 45.1125 44.491 44.782 45.3178 44.782C46.0107 44.782 46.558 44.9758 46.9595 45.3635ZM53.8158 45.186C54.2843 45.439 54.6445 45.792 54.8965 46.245C55.1484 46.698 55.2744 47.2264 55.2744 47.8304C55.2744 48.5487 55.113 49.1894 54.7901 49.7525C54.4673 50.3157 54.0224 50.7524 53.4555 51.0625C52.8886 51.3727 52.2429 51.5278 51.5185 51.5278C50.8965 51.5278 50.3493 51.4013 49.8768 51.1482C49.4044 50.8952 49.0422 50.5402 48.7902 50.0831C48.5383 49.626 48.4123 49.0955 48.4123 48.4915C48.4123 47.7733 48.5737 47.1346 48.8965 46.5755C49.2193 46.0164 49.6642 45.5818 50.2311 45.2717C50.7981 44.9615 51.4437 44.8064 52.1681 44.8064C52.798 44.8064 53.3472 44.933 53.8158 45.186ZM51.117 46.6306C50.8492 46.802 50.6386 47.0408 50.4851 47.3468C50.3315 47.6529 50.2548 48.0018 50.2548 48.3936C50.2548 48.8751 50.3808 49.2628 50.6327 49.5567C50.8847 49.8505 51.2272 49.9974 51.6603 49.9974C51.9988 49.9974 52.302 49.9117 52.5697 49.7403C52.8374 49.5689 53.048 49.3302 53.2016 49.0241C53.3551 48.718 53.4319 48.3691 53.4319 47.9773C53.4319 47.4958 53.3039 47.1081 53.048 46.8143C52.7921 46.5204 52.4516 46.3735 52.0264 46.3735C51.6878 46.3735 51.3847 46.4592 51.117 46.6306ZM62.6798 44.8677L59.0184 51.4543H57.1523L56.0067 44.8677H57.861L58.4043 49.6668L60.8373 44.8677H62.6798ZM63.2999 51.1605C62.918 50.9156 62.6208 50.5728 62.4082 50.1321C62.1956 49.6913 62.0893 49.1853 62.0893 48.614C62.0893 47.9039 62.2369 47.2571 62.5322 46.6735C62.8275 46.0899 63.2349 45.6308 63.7546 45.2962C64.2743 44.9615 64.8491 44.7942 65.479 44.7942C65.9829 44.7942 66.4081 44.9023 66.7546 45.1186C67.101 45.3349 67.3648 45.6512 67.5459 46.0675L67.7703 44.8677H69.5774L68.3136 51.4543H66.5066L66.6837 50.6218C66.1011 51.2258 65.4121 51.5278 64.6168 51.5278C64.1208 51.5278 63.6818 51.4053 63.2999 51.1605ZM66.2231 49.7648C66.5066 49.5771 66.731 49.322 66.8963 48.9996C67.0617 48.6772 67.1443 48.3242 67.1443 47.9406C67.1443 47.4754 67.0184 47.104 66.7664 46.8265C66.5144 46.549 66.1798 46.4103 65.7625 46.4103C65.4318 46.4103 65.1247 46.5041 64.8412 46.6918C64.5578 46.8796 64.3334 47.1346 64.168 47.457C64.0026 47.7794 63.92 48.1283 63.92 48.5038C63.92 48.9772 64.046 49.3526 64.2979 49.6301C64.5499 49.9076 64.8845 50.0464 65.3018 50.0464C65.6326 50.0464 65.9396 49.9525 66.2231 49.7648ZM72.5774 49.2628C72.5537 49.3853 72.5419 49.4873 72.5419 49.5689C72.5419 49.7077 72.5734 49.8056 72.6364 49.8627C72.6994 49.9199 72.7939 49.9484 72.9199 49.9484C73.2033 49.9484 73.5301 49.8587 73.9002 49.6791L74.1246 51.1115C73.8647 51.2503 73.5892 51.3564 73.2978 51.4298C73.0065 51.5033 72.723 51.54 72.4474 51.54C71.9199 51.54 71.4967 51.3972 71.1778 51.1115C70.8589 50.8258 70.6994 50.43 70.6994 49.9239C70.6994 49.7444 70.7152 49.5771 70.7467 49.422L71.3254 46.4715H70.4514L70.6876 45.1615H71.5734L71.9278 43.3495H73.723L73.3687 45.1615H75.1049L74.8687 46.4715H73.1207L72.5774 49.2628ZM78.223 44.8677L76.9592 51.4543H75.1521L76.4159 44.8677H78.223ZM78.4592 42.1804C78.6088 42.3395 78.6836 42.5456 78.6836 42.7986C78.6836 43.1496 78.5655 43.4454 78.3293 43.6862C78.093 43.927 77.8096 44.0474 77.4789 44.0474C77.2348 44.0474 77.0379 43.9658 76.8883 43.8025C76.7387 43.6393 76.6639 43.4312 76.6639 43.1781C76.6639 42.8272 76.7801 42.5334 77.0124 42.2967C77.2446 42.06 77.5261 41.9416 77.8568 41.9416C78.1088 41.9416 78.3096 42.0212 78.4592 42.1804ZM84.217 45.186C84.6855 45.439 85.0457 45.792 85.2977 46.245C85.5497 46.698 85.6756 47.2264 85.6756 47.8304C85.6756 48.5487 85.5142 49.1894 85.1914 49.7525C84.8686 50.3157 84.4237 50.7524 83.8568 51.0625C83.2898 51.3727 82.6442 51.5278 81.9198 51.5278C81.2977 51.5278 80.7505 51.4013 80.2781 51.1482C79.8056 50.8952 79.4434 50.5402 79.1915 50.0831C78.9395 49.626 78.8135 49.0955 78.8135 48.4915C78.8135 47.7733 78.9749 47.1346 79.2978 46.5755C79.6206 46.0164 80.0655 45.5818 80.6324 45.2717C81.1993 44.9615 81.845 44.8064 82.5694 44.8064C83.1993 44.8064 83.7485 44.933 84.217 45.186ZM81.5182 46.6306C81.2505 46.802 81.0399 47.0408 80.8863 47.3468C80.7328 47.6529 80.656 48.0018 80.656 48.3936C80.656 48.8751 80.782 49.2628 81.034 49.5567C81.2859 49.8505 81.6284 49.9974 82.0615 49.9974C82.4001 49.9974 82.7032 49.9117 82.9709 49.7403C83.2387 49.5689 83.4493 49.3302 83.6028 49.0241C83.7564 48.718 83.8331 48.3691 83.8331 47.9773C83.8331 47.4958 83.7052 47.1081 83.4493 46.8143C83.1934 46.5204 82.8528 46.3735 82.4276 46.3735C82.0891 46.3735 81.7859 46.4592 81.5182 46.6306ZM92.8449 45.3635C93.2464 45.7512 93.4472 46.2715 93.4472 46.9245C93.4472 47.1203 93.4236 47.3366 93.3763 47.5733L92.6204 51.4543H90.8134L91.4984 47.8427C91.522 47.7202 91.5338 47.6019 91.5338 47.4876C91.5338 47.1611 91.4374 46.902 91.2445 46.7102C91.0516 46.5184 90.7819 46.4225 90.4354 46.4225C90.0339 46.4225 89.6776 46.5714 89.3665 46.8694C89.0555 47.1673 88.8528 47.557 88.7583 48.0386L88.0969 51.4543H86.278L87.53 44.8677H89.3606L89.1835 45.7736C89.7032 45.1125 90.3764 44.782 91.2031 44.782C91.896 44.782 92.4433 44.9758 92.8449 45.3635ZM95.1066 51.1972C94.5515 50.9687 94.1007 50.6626 93.7543 50.279L94.522 49.1159C94.8212 49.4179 95.1755 49.6648 95.585 49.8566C95.9944 50.0484 96.3724 50.1443 96.7188 50.1443C96.9708 50.1443 97.1716 50.0913 97.3212 49.9852C97.4708 49.8791 97.5456 49.7362 97.5456 49.5567C97.5456 49.3934 97.4629 49.2588 97.2976 49.1527C97.1322 49.0465 96.8802 48.9241 96.5417 48.7854C96.1716 48.6303 95.8665 48.4854 95.6263 48.3507C95.3862 48.2161 95.1795 48.0283 95.0062 47.7876C94.833 47.5468 94.7464 47.2468 94.7464 46.8877C94.7464 46.4796 94.8488 46.1164 95.0535 45.7981C95.2582 45.4798 95.5456 45.2329 95.9157 45.0574C96.2858 44.8819 96.711 44.7942 97.1913 44.7942C97.6873 44.7942 98.1873 44.886 98.6912 45.0697C99.1952 45.2533 99.6282 45.5043 99.9904 45.8226L99.1637 46.9979C98.833 46.7449 98.4924 46.5449 98.142 46.398C97.7916 46.2511 97.4826 46.1776 97.2149 46.1776C97.0102 46.1776 96.8369 46.2307 96.6952 46.3368C96.5535 46.4429 96.4826 46.5735 96.4826 46.7286C96.4826 46.8836 96.5653 47.0142 96.7306 47.1203C96.896 47.2264 97.1479 47.3489 97.4865 47.4876C97.8645 47.6509 98.1755 47.8019 98.4196 47.9406C98.6637 48.0794 98.8763 48.2732 99.0574 48.5221C99.2385 48.7711 99.329 49.0751 99.329 49.4342C99.329 49.8423 99.2227 50.2055 99.0101 50.5238C98.7975 50.8422 98.5003 51.0911 98.1184 51.2707C97.7365 51.4502 97.3015 51.54 96.8133 51.54C96.2306 51.54 95.6618 51.4257 95.1066 51.1972Z" fill="#448AFF"/>
</svg>
